{"scene":0,"scenes":[{"nodes":[0]}],"asset":{"version":"2.0","generator":"https://github.com/mikedh/trimesh"},"accessors":[{"componentType":5125,"type":"SCALAR","bufferView":0,"count":462450,"max":[77076],"min":[0]},{"componentType":5126,"type":"VEC3","byteOffset":0,"bufferView":1,"count":77077,"max":[305.10736083984375,241.93792724609375,161.64964294433594],"min":[162.57606506347656,80.82350158691406,0.10264894366264343]},{"componentType":5126,"type":"VEC2","byteOffset":0,"bufferView":3,"count":77077,"max":[0.9999271631240845,0.9976970553398132],"min":[6.29018759354949e-05,0.0013651209883391857]},{"componentType":5126,"count":77077,"type":"VEC3","byteOffset":0,"bufferView":4,"max":[0.9999998807907104,0.9999544620513916,1.0],"min":[-0.999954879283905,-0.9999963045120239,-0.9999997019767761]}],"meshes":[{"name":"geometry_0","extras":{"units":"meters","from_gltf_primitive":false},"primitives":[{"attributes":{"POSITION":1,"TEXCOORD_0":2,"NORMAL":3},"indices":0,"mode":4,"material":0}]}],"images":[{"bufferView":2,"mimeType":"image/png"}],"textures":[{"source":0}],"materials":[{"pbrMetallicRoughness":{"baseColorTexture":{"index":0},"baseColorFactor":[1.0,1.0,1.0,1.0],"roughnessFactor":0.9036020036098448},"doubleSided":false}],"nodes":[{"name":"world","children":[1]},{"name":"geometry_0","mesh":0}],"buffers":[{"uri":"gltf_buffer_0.bin","byteLength":1849800},{"uri":"gltf_buffer_1.bin","byteLength":924924},{"uri":"gltf_buffer_2.bin","byteLength":1023556},{"uri":"gltf_buffer_3.bin","byteLength":616616},{"uri":"gltf_buffer_4.bin","byteLength":924924}],"bufferViews":[{"buffer":0,"byteOffset":0,"byteLength":1849800},{"buffer":1,"byteOffset":0,"byteLength":924924},{"buffer":2,"byteOffset":0,"byteLength":1023556},{"buffer":3,"byteOffset":0,"byteLength":616616},{"buffer":4,"byteOffset":0,"byteLength":924924}]}