{
  "accessors": [
    {
      "bufferView": 0,
      "byteOffset": 0,
      "componentType": 5126,
      "normalized": false,
      "count": 77077,
      "type": "VEC3",
      "max": [
        305.10736083984375,
        241.93792724609375,
        161.64964294433594
      ],
      "min": [
        162.57606506347656,
        80.82350158691406,
        0.10264894366264343
      ]
    },
    {
      "bufferView": 1,
      "byteOffset": 0,
      "componentType": 5126,
      "normalized": false,
      "count": 77077,
      "type": "VEC2",
      "max": [
        0.9999755620956421,
        0.9993290901184082
      ],
      "min": [
        8.549999620299786e-06,
        0.0005366500117816031
      ]
    },
    {
      "bufferView": 2,
      "byteOffset": 0,
      "componentType": 5125,
      "normalized": false,
      "count": 462450,
      "type": "SCALAR"
    }
  ],
  "asset": {
    "generator": "pygltflib@v1.16.5",
    "version": "2.0"
  },
  "bufferViews": [
    {
      "buffer": 0,
      "byteOffset": 0,
      "byteLength": 924924,
      "target": 34962
    },
    {
      "buffer": 0,
      "byteOffset": 924924,
      "byteLength": 616616,
      "target": 34962
    },
    {
      "buffer": 0,
      "byteOffset": 1541540,
      "byteLength": 1849800,
      "target": 34963
    }
  ],
  "buffers": [
    {
      "uri": "scene.bin",
      "byteLength": 3391340
    }
  ],
  "meshes": [
    {
      "primitives": [
        {
          "attributes": {
            "POSITION": 0,
            "TEXCOORD_0": 1
          },
          "indices": 2,
          "mode": 4,
          "material": 0
        }
      ]
    }
  ],
  "nodes": [
    {
      "mesh": 0
    }
  ],
  "scenes": [
    {
      "nodes": [
        0
      ]
    }
  ],
  "images": [
    {
      "uri": "textures/diffuse.png"
    }
  ],
  "textures": [
    {
      "source": 0,
      "sampler": 0
    }
  ],
  "materials": [
    {
      "doubleSided": true,
      "extensions": {
        "KHR_materials_pbrSpecularGlossiness": {
          "diffuseFactor": [
            0.8,
            0.8,
            0.8,
            1.0
          ],
          "diffuseTexture": {
            "index": 0,
            "texCoord": 0
          },
          "glossinessFactor": 0.5,
          "specularFactor": [
            0.2,
            0.2,
            0.2
          ]
        }
      },
      "name": "Material"
    }
  ],
  "samplers": [
    {
      "magFilter": 9729,
      "minFilter": 9987,
      "wrapS": 10497,
      "wrapT": 10497
    }
  ]
}