{"scene":0,"scenes":[{"nodes":[0]}],"asset":{"version":"2.0","generator":"https://github.com/mikedh/trimesh"},"accessors":[{"componentType":5125,"type":"SCALAR","bufferView":0,"count":449634,"max":[74962],"min":[0]},{"componentType":5126,"type":"VEC3","byteOffset":0,"bufferView":1,"count":74963,"max":[160.06561279296875,241.82774353027344,165.63507080078125],"min":[28.691389083862305,73.10480499267578,0.010850540362298489]},{"componentType":5126,"type":"VEC2","byteOffset":0,"bufferView":3,"count":74963,"max":[0.9999617338180542,0.9895006418228149],"min":[2.008287083299365e-05,0.0025905573274940252]},{"componentType":5126,"count":74963,"type":"VEC3","byteOffset":0,"bufferView":4,"max":[0.9999696612358093,0.999849259853363,1.0],"min":[-0.9999975562095642,-0.9999845623970032,-1.0]}],"meshes":[{"name":"geometry_0","extras":{"units":"meters","from_gltf_primitive":false},"primitives":[{"attributes":{"POSITION":1,"TEXCOORD_0":2,"NORMAL":3},"indices":0,"mode":4,"material":0}]}],"images":[{"bufferView":2,"mimeType":"image/png"}],"textures":[{"source":0}],"materials":[{"pbrMetallicRoughness":{"baseColorTexture":{"index":0},"baseColorFactor":[1.0,1.0,1.0,1.0],"roughnessFactor":0.9036020036098448},"doubleSided":false}],"nodes":[{"name":"world","children":[1]},{"name":"geometry_0","mesh":0}],"buffers":[{"uri":"gltf_buffer_0.bin","byteLength":1798536},{"uri":"gltf_buffer_1.bin","byteLength":899556},{"uri":"gltf_buffer_2.bin","byteLength":922908},{"uri":"gltf_buffer_3.bin","byteLength":599704},{"uri":"gltf_buffer_4.bin","byteLength":899556}],"bufferViews":[{"buffer":0,"byteOffset":0,"byteLength":1798536},{"buffer":1,"byteOffset":0,"byteLength":899556},{"buffer":2,"byteOffset":0,"byteLength":922908},{"buffer":3,"byteOffset":0,"byteLength":599704},{"buffer":4,"byteOffset":0,"byteLength":899556}]}