{"scene":0,"scenes":[{"nodes":[0]}],"asset":{"version":"2.0","generator":"https://github.com/mikedh/trimesh"},"accessors":[{"componentType":5125,"type":"SCALAR","bufferView":0,"count":557208,"max":[92869],"min":[0]},{"componentType":5126,"type":"VEC3","byteOffset":0,"bufferView":1,"count":92870,"max":[289.4527282714844,282.3404541015625,277.98785400390625],"min":[34.744712829589844,136.5820770263672,47.68738555908203]},{"componentType":5126,"type":"VEC2","byteOffset":0,"bufferView":3,"count":92870,"max":[0.999997615814209,0.9978429675102234],"min":[3.370000058566802e-06,0.23452746868133545]},{"componentType":5126,"count":92870,"type":"VEC3","byteOffset":0,"bufferView":4,"max":[0.9999978542327881,0.9999424815177917,1.0],"min":[-0.9999889731407166,-0.9999544024467468,-1.0]}],"meshes":[{"name":"geometry_0","extras":{"units":"meters","from_gltf_primitive":false,"processed":true},"primitives":[{"attributes":{"POSITION":1,"TEXCOORD_0":2,"NORMAL":3},"indices":0,"mode":4,"material":0}]}],"images":[{"bufferView":2,"mimeType":"image/png"}],"textures":[{"source":0}],"materials":[{"pbrMetallicRoughness":{"baseColorTexture":{"index":0},"baseColorFactor":[1.0,1.0,1.0,1.0],"roughnessFactor":0.9036020036098448},"doubleSided":false}],"nodes":[{"name":"world","children":[1]},{"name":"geometry_0","mesh":0}],"buffers":[{"uri":"gltf_buffer_0.bin","byteLength":2228832},{"uri":"gltf_buffer_1.bin","byteLength":1114440},{"uri":"gltf_buffer_2.bin","byteLength":1512744},{"uri":"gltf_buffer_3.bin","byteLength":742960},{"uri":"gltf_buffer_4.bin","byteLength":1114440}],"bufferViews":[{"buffer":0,"byteOffset":0,"byteLength":2228832},{"buffer":1,"byteOffset":0,"byteLength":1114440},{"buffer":2,"byteOffset":0,"byteLength":1512744},{"buffer":3,"byteOffset":0,"byteLength":742960},{"buffer":4,"byteOffset":0,"byteLength":1114440}]}