{"scene":0,"scenes":[{"nodes":[0]}],"asset":{"version":"2.0","generator":"https://github.com/mikedh/trimesh"},"accessors":[{"componentType":5125,"type":"SCALAR","bufferView":0,"count":278604,"max":[51901],"min":[0]},{"componentType":5126,"type":"VEC3","byteOffset":0,"bufferView":1,"count":51902,"max":[289.1646423339844,281.5204772949219,277.459228515625],"min":[35.13653564453125,137.232666015625,49.78189468383789]},{"componentType":5126,"type":"VEC2","byteOffset":0,"bufferView":3,"count":51902,"max":[0.999987781047821,1.0],"min":[3.181516149197705e-05,0.0]}],"meshes":[{"name":"geometry_0","extras":{},"primitives":[{"attributes":{"POSITION":1,"TEXCOORD_0":2},"indices":0,"mode":4,"material":0}]}],"images":[{"bufferView":2,"mimeType":"image/png"}],"textures":[{"source":0}],"materials":[{"pbrMetallicRoughness":{"baseColorTexture":{"index":0},"baseColorFactor":[0.4,0.4,0.4,1.0],"roughnessFactor":0.9036020036098448},"doubleSided":false}],"nodes":[{"name":"world","children":[1]},{"name":"geometry_0","mesh":0}],"buffers":[{"uri":"gltf_buffer_0.bin","byteLength":1114416},{"uri":"gltf_buffer_1.bin","byteLength":622824},{"uri":"gltf_buffer_2.bin","byteLength":76384},{"uri":"gltf_buffer_3.bin","byteLength":415216}],"bufferViews":[{"buffer":0,"byteOffset":0,"byteLength":1114416},{"buffer":1,"byteOffset":0,"byteLength":622824},{"buffer":2,"byteOffset":0,"byteLength":76384},{"buffer":3,"byteOffset":0,"byteLength":415216}]}