{
  "accessors": [
    {
      "bufferView": 0,
      "byteOffset": 0,
      "componentType": 5126,
      "normalized": false,
      "count": 51742,
      "type": "VEC3",
      "max": [
        289.1806945800781,
        281.536376953125,
        277.29803466796875
      ],
      "min": [
        35.09891128540039,
        137.3343963623047,
        49.81552505493164
      ]
    },
    {
      "bufferView": 1,
      "byteOffset": 0,
      "componentType": 5126,
      "normalized": false,
      "count": 51742,
      "type": "VEC2",
      "max": [
        0.9995744824409485,
        0.9995777010917664
      ],
      "min": [
        0.0,
        0.0
      ]
    },
    {
      "bufferView": 2,
      "byteOffset": 0,
      "componentType": 5125,
      "normalized": false,
      "count": 278604,
      "type": "SCALAR"
    }
  ],
  "asset": {
    "generator": "pygltflib@v1.16.5",
    "version": "2.0"
  },
  "bufferViews": [
    {
      "buffer": 0,
      "byteOffset": 0,
      "byteLength": 620904,
      "target": 34962
    },
    {
      "buffer": 0,
      "byteOffset": 620904,
      "byteLength": 413936,
      "target": 34962
    },
    {
      "buffer": 0,
      "byteOffset": 1034840,
      "byteLength": 1114416,
      "target": 34963
    }
  ],
  "buffers": [
    {
      "uri": "scene.bin",
      "byteLength": 2149256
    }
  ],
  "images": [
    {
      "uri": "textures/diffuse.png"
    }
  ],
  "materials": [
    {
      "pbrMetallicRoughness": {
        "baseColorTexture": {
          "index": 0
        },
        "metallicFactor": 0.0,
        "roughnessFactor": 0.8
      },
      "emissiveFactor": [
        0.0,
        0.0,
        0.0
      ],
      "alphaMode": "OPAQUE",
      "doubleSided": true
    }
  ],
  "meshes": [
    {
      "primitives": [
        {
          "attributes": {
            "POSITION": 0,
            "TEXCOORD_0": 1
          },
          "indices": 2,
          "mode": 4,
          "material": 0
        }
      ]
    }
  ],
  "nodes": [
    {
      "mesh": 0
    }
  ],
  "samplers": [
    {
      "magFilter": 9729,
      "minFilter": 9987,
      "wrapS": 10497,
      "wrapT": 10497
    }
  ],
  "scenes": [
    {
      "nodes": [
        0
      ]
    }
  ],
  "textures": [
    {
      "sampler": 0,
      "source": 0
    }
  ]
}