{"scene":0,"scenes":[{"nodes":[0]}],"asset":{"version":"2.0","generator":"https://github.com/mikedh/trimesh"},"accessors":[{"componentType":5125,"type":"SCALAR","bufferView":0,"count":130446,"max":[21724],"min":[0]},{"componentType":5126,"type":"VEC3","byteOffset":0,"bufferView":1,"count":21725,"max":[221.64508056640625,213.8083953857422,362.3179931640625],"min":[159.55551147460938,126.33246612548828,164.70155334472656]},{"componentType":5126,"type":"VEC2","byteOffset":0,"bufferView":3,"count":21725,"max":[0.9982312321662903,0.9896057844161987],"min":[0.000899413600564003,0.012327790260314941]},{"componentType":5126,"count":21725,"type":"VEC3","byteOffset":0,"bufferView":4,"max":[0.9999788403511047,0.999984622001648,1.0],"min":[-0.9999839663505554,-0.9999799728393555,-0.9997281432151794]}],"meshes":[{"name":"geometry_0","extras":{"units":"meters","from_gltf_primitive":false},"primitives":[{"attributes":{"POSITION":1,"TEXCOORD_0":2,"NORMAL":3},"indices":0,"mode":4,"material":0}]}],"images":[{"bufferView":2,"mimeType":"image/png"}],"textures":[{"source":0}],"materials":[{"pbrMetallicRoughness":{"baseColorTexture":{"index":0},"baseColorFactor":[1.0,1.0,1.0,1.0],"roughnessFactor":0.9036020036098448},"doubleSided":false}],"nodes":[{"name":"world","children":[1]},{"name":"geometry_0","mesh":0}],"buffers":[{"uri":"gltf_buffer_0.bin","byteLength":521784},{"uri":"gltf_buffer_1.bin","byteLength":260700},{"uri":"gltf_buffer_2.bin","byteLength":1256016},{"uri":"gltf_buffer_3.bin","byteLength":173800},{"uri":"gltf_buffer_4.bin","byteLength":260700}],"bufferViews":[{"buffer":0,"byteOffset":0,"byteLength":521784},{"buffer":1,"byteOffset":0,"byteLength":260700},{"buffer":2,"byteOffset":0,"byteLength":1256016},{"buffer":3,"byteOffset":0,"byteLength":173800},{"buffer":4,"byteOffset":0,"byteLength":260700}]}