{
  "accessors": [
    {
      "bufferView": 0,
      "byteOffset": 0,
      "componentType": 5126,
      "normalized": false,
      "count": 21725,
      "type": "VEC3",
      "max": [
        221.64508056640625,
        213.8083953857422,
        362.3179931640625
      ],
      "min": [
        159.55551147460938,
        126.33246612548828,
        164.70155334472656
      ]
    },
    {
      "bufferView": 1,
      "byteOffset": 0,
      "componentType": 5126,
      "normalized": false,
      "count": 21725,
      "type": "VEC2",
      "max": [
        0.9999687671661377,
        0.9970694184303284
      ],
      "min": [
        0.0006689499714411795,
        0.002065239939838648
      ]
    },
    {
      "bufferView": 2,
      "byteOffset": 0,
      "componentType": 5125,
      "normalized": false,
      "count": 130446,
      "type": "SCALAR"
    }
  ],
  "asset": {
    "generator": "pygltflib@v1.16.5",
    "version": "2.0"
  },
  "bufferViews": [
    {
      "buffer": 0,
      "byteOffset": 0,
      "byteLength": 260700,
      "target": 34962
    },
    {
      "buffer": 0,
      "byteOffset": 260700,
      "byteLength": 173800,
      "target": 34962
    },
    {
      "buffer": 0,
      "byteOffset": 434500,
      "byteLength": 521784,
      "target": 34963
    }
  ],
  "buffers": [
    {
      "uri": "scene.bin",
      "byteLength": 956284
    }
  ],
  "meshes": [
    {
      "primitives": [
        {
          "attributes": {
            "POSITION": 0,
            "TEXCOORD_0": 1
          },
          "indices": 2,
          "mode": 4,
          "material": 0
        }
      ]
    }
  ],
  "nodes": [
    {
      "mesh": 0
    }
  ],
  "scenes": [
    {
      "nodes": [
        0
      ]
    }
  ],
  "images": [
    {
      "uri": "textures/diffuse.png"
    }
  ],
  "textures": [
    {
      "source": 0,
      "sampler": 0
    }
  ],
  "materials": [
    {
      "doubleSided": true,
      "extensions": {
        "KHR_materials_pbrSpecularGlossiness": {
          "diffuseFactor": [
            0.8,
            0.8,
            0.8,
            1.0
          ],
          "diffuseTexture": {
            "index": 0,
            "texCoord": 0
          },
          "glossinessFactor": 0.5,
          "specularFactor": [
            0.2,
            0.2,
            0.2
          ]
        }
      },
      "name": "Material"
    }
  ],
  "samplers": [
    {
      "magFilter": 9729,
      "minFilter": 9987,
      "wrapS": 10497,
      "wrapT": 10497
    }
  ]
}