{"scene":0,"scenes":[{"nodes":[0]}],"asset":{"version":"2.0","generator":"https://github.com/mikedh/trimesh"},"accessors":[{"componentType":5125,"type":"SCALAR","bufferView":0,"count":209160,"max":[34988],"min":[0]},{"componentType":5126,"type":"VEC3","byteOffset":0,"bufferView":1,"count":34989,"max":[267.40704345703125,266.3393859863281,362.4983825683594],"min":[132.71925354003906,164.9842529296875,312.5040588378906]},{"componentType":5126,"type":"VEC2","byteOffset":0,"bufferView":3,"count":34989,"max":[0.9999986290931702,0.9970061182975769],"min":[5.70556858292548e-06,0.003951695282012224]},{"componentType":5126,"count":34989,"type":"VEC3","byteOffset":0,"bufferView":4,"max":[0.9961553812026978,0.9999068379402161,1.0],"min":[-0.999994695186615,-0.9987244009971619,-0.9999978542327881]}],"meshes":[{"name":"geometry_0","extras":{"units":"meters","from_gltf_primitive":false},"primitives":[{"attributes":{"POSITION":1,"TEXCOORD_0":2,"NORMAL":3},"indices":0,"mode":4,"material":0}]}],"images":[{"bufferView":2,"mimeType":"image/png"}],"textures":[{"source":0}],"materials":[{"pbrMetallicRoughness":{"baseColorTexture":{"index":0},"baseColorFactor":[1.0,1.0,1.0,1.0],"roughnessFactor":0.9036020036098448},"doubleSided":false}],"nodes":[{"name":"world","children":[1]},{"name":"geometry_0","mesh":0}],"buffers":[{"uri":"gltf_buffer_0.bin","byteLength":836640},{"uri":"gltf_buffer_1.bin","byteLength":419868},{"uri":"gltf_buffer_2.bin","byteLength":1524076},{"uri":"gltf_buffer_3.bin","byteLength":279912},{"uri":"gltf_buffer_4.bin","byteLength":419868}],"bufferViews":[{"buffer":0,"byteOffset":0,"byteLength":836640},{"buffer":1,"byteOffset":0,"byteLength":419868},{"buffer":2,"byteOffset":0,"byteLength":1524076},{"buffer":3,"byteOffset":0,"byteLength":279912},{"buffer":4,"byteOffset":0,"byteLength":419868}]}